<svg style="position: absolute; width: 0; height: 0; overflow: hidden;" version="1.1" xmlns="http://www.w3.org/2000/svg" xmlns:xlink="http://www.w3.org/1999/xlink">
    <defs>
        <symbol id="tcb-icon-course-structure" viewBox="0 0 32 32">
            <g>
                <path class="st0" d="M31.41,2.51H18.54c-1.04,0-1.96,0.51-2.54,1.29c-0.58-0.78-1.49-1.29-2.54-1.29H0.59
		c-0.41,0-0.75,0.34-0.75,0.75v22.48c0,0.41,0.33,0.75,0.75,0.75l11.73,0.04c0.01,0,0.67,0.03,1.27,0.48
		c0.43,0.33,1.25,1.48,1.66,2.13c0.14,0.22,0.38,0.35,0.63,0.35c0.04,0,0.08-0.01,0.12-0.02c0.04,0.01,0.08,0.02,0.12,0.02
		c0.25,0,0.49-0.13,0.63-0.35c0.41-0.65,1.23-1.8,1.67-2.13c0.59-0.45,1.26-0.48,1.25-0.48l11.74-0.04c0.41,0,0.75-0.34,0.75-0.75
		V3.26C32.16,2.85,31.83,2.51,31.41,2.51z M15.13,26.45c-0.22-0.25-0.44-0.48-0.64-0.63c-0.98-0.75-2.04-0.78-2.16-0.78L1.34,24.99
		V4.01h12.13c0.92,0,1.66,0.75,1.66,1.66V26.45z M30.66,24.99l-11,0.04c-0.12,0-1.17,0.04-2.15,0.78c-0.2,0.15-0.42,0.38-0.64,0.63
		V5.67c0-0.92,0.75-1.66,1.66-1.66h12.13V24.99z"/>
                <path class="st0" d="M11.74,13.31H4.11c-0.41,0-0.75,0.34-0.75,0.75s0.34,0.75,0.75,0.75h7.63c0.41,0,0.75-0.34,0.75-0.75
		S12.15,13.31,11.74,13.31z"/>
                <path class="st0" d="M11.74,16.83H4.11c-0.41,0-0.75,0.34-0.75,0.75s0.34,0.75,0.75,0.75h7.63c0.41,0,0.75-0.34,0.75-0.75
		S12.15,16.83,11.74,16.83z"/>
                <path class="st0" d="M11.74,9.78H4.11c-0.41,0-0.75,0.34-0.75,0.75s0.34,0.75,0.75,0.75h7.63c0.41,0,0.75-0.34,0.75-0.75
		S12.15,9.78,11.74,9.78z"/>
                <path class="st0" d="M19.78,14.81h7.63c0.41,0,0.75-0.34,0.75-0.75s-0.34-0.75-0.75-0.75h-7.63c-0.41,0-0.75,0.34-0.75,0.75
		S19.37,14.81,19.78,14.81z"/>
                <path class="st0" d="M19.78,18.33h7.63c0.41,0,0.75-0.34,0.75-0.75s-0.34-0.75-0.75-0.75h-7.63c-0.41,0-0.75,0.34-0.75,0.75
		S19.37,18.33,19.78,18.33z"/>
                <path class="st0" d="M19.78,11.28h7.63c0.41,0,0.75-0.34,0.75-0.75s-0.34-0.75-0.75-0.75h-7.63c-0.41,0-0.75,0.34-0.75,0.75
		S19.37,11.28,19.78,11.28z"/>
            </g>
        </symbol>
    </defs>
</svg>